<svg version="1.2" xmlns="http://www.w3.org/2000/svg" viewBox="0 0 38 38" width="38" height="38">
	<title>amex-outline-svg</title>
	<style>
		.s0 { fill: #eeeeee } 
	</style>
	<path id="Layer" fill-rule="evenodd" class="s0" d="m34.9 7.4q0.9 0.4 1.6 1.1 0.7 0.7 1.1 1.6 0.4 0.9 0.4 1.9v14q0 1-0.4 1.9-0.4 0.9-1.1 1.6-0.7 0.7-1.6 1.1-0.9 0.4-1.9 0.4h-28q-1 0-1.9-0.4-0.9-0.4-1.6-1.1-0.7-0.7-1.1-1.6-0.4-0.9-0.4-1.9v-14q0-1 0.4-1.9 0.4-0.9 1.1-1.6 0.7-0.7 1.6-1.1 0.9-0.4 1.9-0.4h28q1 0 1.9 0.4zm-29.9 0.6q-0.8 0-1.5 0.3-0.8 0.3-1.3 0.9-0.6 0.5-0.9 1.3-0.3 0.7-0.3 1.5v14q0 0.8 0.3 1.5 0.3 0.8 0.9 1.3 0.5 0.6 1.3 0.9 0.7 0.3 1.5 0.3h28q0.8 0 1.5-0.3 0.8-0.3 1.3-0.9 0.6-0.5 0.9-1.3 0.3-0.7 0.3-1.5v-14q0-0.8-0.3-1.5-0.3-0.8-0.9-1.3-0.5-0.6-1.3-0.9-0.7-0.3-1.5-0.3z"/>
	<path id="Layer" fill-rule="evenodd" class="s0" d="m20 16.5v5h-1.3v-3.3l-1.6 3.3h-1.2l-1.6-3.6v3.6h-2.5l-0.5-1.1h-2.4l-0.4 1.1h-1.5l2.2-5h1.9l1.9 4.2v-4.2h2l1.5 3.2 1.5-3.2zm-9.2 2.8l-0.7-1.7-0.7 1.7z"/>
	<path id="Layer" fill-rule="evenodd" class="s0" d="m28.7 19l2.3 2.5h-1.8l-1.4-1.6-1.5 1.6h-5.4v-5h5.5l1.4 1.5 1.4-1.5h1.8zm-1.8 0l-1.9-2.1v0.7h-2.8v0.8h2.8v1.2h-2.8v0.8h2.8v0.6z"/>
</svg>