<?xml version="1.0" encoding="utf-8"?>
<!-- Generator: Adobe Illustrator 24.0.1, SVG Export Plug-In . SVG Version: 6.00 Build 0)  -->
<svg version="1.1" id="Layer_1" xmlns="http://www.w3.org/2000/svg" xmlns:xlink="http://www.w3.org/1999/xlink" x="0px" y="0px"
	 viewBox="0 0 20 20" style="enable-background:new 0 0 20 20;" xml:space="preserve">
<style type="text/css">
	.st0{fill:#CDCCC7;}
</style>
<g>
	<g>
		<path class="st0" d="M3.5,7.6C3,7.6,2.6,8,2.6,8.4v3.9c0,0.4,0.4,0.8,0.8,0.8s0.8-0.4,0.8-0.8V8.4C4.3,8,3.9,7.6,3.5,7.6z"/>
	</g>
	<g>
		<path class="st0" d="M16.1,7.6c-0.4,0-0.8,0.3-0.8,0.8v3.9c0,0.4,0.4,0.8,0.8,0.8c0.4,0,0.8-0.4,0.8-0.8V8.4
			C17,8,16.6,7.6,16.1,7.6z"/>
	</g>
	<g>
		<path class="st0" d="M5,7.6C5,7.6,5,7.6,5,7.6v7.3c0,0.7,0.5,1.2,1.2,1.2h1.3v2.1c0,0.4,0.4,0.8,0.8,0.8c0.4,0,0.8-0.4,0.8-0.8
			v-2.1h1.4v2.1c0,0.4,0.4,0.8,0.8,0.8c0.4,0,0.8-0.4,0.8-0.8v-2.1h1.3c0.7,0,1.2-0.5,1.2-1.2V7.7c0,0,0,0,0,0H5z"/>
	</g>
	<g>
		<path class="st0" d="M12.2,2.7L13,1.1L12.9,1L12,2.6c-0.7-0.3-1.4-0.5-2.2-0.5c-0.7,0-1.4,0.2-2.1,0.5L6.9,1L6.7,1.1l0.8,1.6
			C6.1,3.5,5,5,5,6.9h9.6C14.6,5.1,13.6,3.5,12.2,2.7z M7.3,5C7.1,5,6.9,4.8,6.9,4.5c0-0.2,0.2-0.4,0.4-0.4c0.2,0,0.5,0.2,0.5,0.4
			C7.8,4.8,7.6,5,7.3,5z M12.2,5c-0.3,0-0.5-0.2-0.5-0.5c0-0.2,0.2-0.4,0.5-0.4c0.2,0,0.4,0.2,0.4,0.4C12.7,4.8,12.5,5,12.2,5z"/>
	</g>
</g>
</svg>
