<svg version="1.2" xmlns="http://www.w3.org/2000/svg" viewBox="0 0 38 38" width="38" height="38">
	<title>discover-outline-svg</title>
	<style>
		.s0 { fill: #eeeeee } 
	</style>
	<path id="Layer" fill-rule="evenodd" class="s0" d="m34.9 7.4q0.9 0.4 1.6 1.1 0.7 0.7 1.1 1.6 0.4 0.9 0.4 1.9v14q0 1-0.4 1.9-0.4 0.9-1.1 1.6-0.7 0.7-1.6 1.1-0.9 0.4-1.9 0.4h-28q-1 0-1.9-0.4-0.9-0.4-1.6-1.1-0.7-0.7-1.1-1.6-0.4-0.9-0.4-1.9v-14q0-1 0.4-1.9 0.4-0.9 1.1-1.6 0.7-0.7 1.6-1.1 0.9-0.4 1.9-0.4h28q1 0 1.9 0.4zm-29.9 0.6q-0.8 0-1.5 0.3-0.8 0.3-1.3 0.9-0.6 0.5-0.9 1.3-0.3 0.7-0.3 1.5v14q0 0.8 0.3 1.5 0.3 0.8 0.9 1.3 0.5 0.6 1.3 0.9 0.7 0.3 1.5 0.3h28q0.8 0 1.5-0.3 0.8-0.3 1.3-0.9 0.6-0.5 0.9-1.3 0.3-0.7 0.3-1.5v-14q0-0.8-0.3-1.5-0.3-0.8-0.9-1.3-0.5-0.6-1.3-0.9-0.7-0.3-1.5-0.3z"/>
	<path id="Layer" fill-rule="evenodd" class="s0" d="m21.1 16.9q0.4 0.2 0.7 0.5 0.3 0.3 0.5 0.7 0.2 0.4 0.2 0.9c0 0.9-0.5 1.7-1.4 2.1-0.8 0.3-1.8 0.1-2.4-0.5-0.7-0.6-0.9-1.6-0.5-2.4 0.3-0.9 1.1-1.4 2-1.4q0.4 0 0.9 0.1zm-12.7 0h0.8v4.2h-0.8zm-1.2 0.7q0 0.1 0.1 0.1 0.1 0.1 0.1 0.2 0.1 0.1 0.1 0.2 0.1 0.1 0.1 0.2 0 0.2 0.1 0.3 0 0.1 0 0.2 0 0.1 0 0.3 0 0.1 0 0.2 0 0.1 0 0.2-0.1 0.2-0.1 0.3-0.1 0.1-0.1 0.2-0.1 0.1-0.1 0.2-0.1 0.1-0.2 0.2 0 0-0.1 0.1-0.1 0.1-0.2 0.2-0.1 0-0.1 0.1-0.1 0-0.2 0.1-0.1 0-0.2 0.1-0.1 0-0.2 0.1-0.1 0-0.2 0-0.1 0-0.2 0-0.1 0.1-0.2 0.1-0.1 0-0.2 0h-1.7v-4.3h1.8q0.1 0 0.2 0 0.1 0 0.2 0.1 0.1 0 0.2 0 0.1 0 0.2 0.1 0.1 0 0.2 0 0.1 0.1 0.2 0.1 0.1 0.1 0.1 0.1 0.1 0.1 0.2 0.1 0.1 0.1 0.2 0.2zm-0.5 2.1q0.1-0.1 0.1-0.1 0-0.1 0.1-0.2 0-0.1 0-0.2 0-0.1 0-0.2 0 0 0-0.1 0-0.1 0-0.2-0.1-0.1-0.1-0.2 0 0 0-0.1-0.1-0.1-0.1-0.1 0-0.1-0.1-0.2 0 0-0.1-0.1 0 0-0.1-0.1 0 0-0.1 0-0.1-0.1-0.1-0.1-0.1 0-0.2-0.1 0 0-0.1 0-0.1 0-0.2 0 0-0.1-0.1-0.1-0.1 0-0.2 0-0.1 0-0.2 0h-0.7v2.9h0.6q0.1 0 0.2 0 0.1 0 0.1 0 0.1 0 0.2-0.1 0.1 0 0.2 0 0.1 0 0.1 0 0.1-0.1 0.2-0.1 0 0 0.1-0.1 0.1 0 0.1 0 0.1-0.1 0.2-0.1 0-0.1 0.1-0.1 0-0.1 0-0.2 0.1 0 0.1-0.1zm5.6-0.8q0.1 0.1 0.1 0.1 0.1 0.1 0.1 0.1 0.1 0.1 0.1 0.1 0.1 0.1 0.1 0.1 0 0.1 0.1 0.2 0 0 0 0.1 0 0.1 0 0.2 0.1 0 0.1 0.1 0 0.1-0.1 0.2 0 0 0 0.1 0 0.1 0 0.2 0 0-0.1 0.1 0 0.1-0.1 0.1 0 0.1 0 0.1-0.1 0.1-0.1 0.1-0.1 0.1-0.1 0.1-0.1 0.1-0.1 0.1-0.1 0.1-0.2 0.1 0 0-0.1 0-0.1 0.1-0.1 0.1-0.1 0-0.2 0-0.1 0-0.1 0-0.1 0.1-0.2 0.1-0.1 0-0.2 0-0.1 0-0.2 0-0.1 0-0.2-0.1 0 0-0.1 0-0.1 0-0.2-0.1-0.1 0-0.2 0-0.1-0.1-0.2-0.1-0.1-0.1-0.1-0.2-0.1 0-0.2-0.1l0.6-0.6q0.1 0.1 0.2 0.2 0.1 0.1 0.2 0.2 0.1 0 0.2 0.1 0.1 0 0.3 0 0 0 0 0 0.1 0 0.1 0 0 0 0.1 0 0 0 0 0 0.1 0 0.1 0 0 0 0.1-0.1 0 0 0 0 0.1 0 0.1 0 0 0 0-0.1 0.1 0 0.1 0 0 0 0 0 0-0.1 0.1-0.1 0-0.1 0-0.2 0 0 0-0.1 0-0.1 0-0.2-0.1-0.1-0.1-0.1-0.1 0-0.1-0.1-0.1 0-0.1 0 0-0.1-0.1-0.1 0 0-0.1 0l-0.5-0.2q-0.1 0-0.1 0-0.1-0.1-0.2-0.1 0 0-0.1 0 0-0.1-0.1-0.1-0.1 0-0.1-0.1-0.1 0-0.1-0.1-0.1 0-0.1-0.1-0.1 0-0.1-0.1 0 0-0.1-0.1 0-0.1 0-0.2 0 0 0-0.1 0-0.1 0-0.2 0 0 0-0.1 0-0.1 0-0.2 0 0 0-0.1 0.1-0.1 0.1-0.1 0-0.1 0.1-0.2 0 0 0.1-0.1 0 0 0.1-0.1 0 0 0.1 0 0-0.1 0.1-0.1 0-0.1 0.1-0.1 0.1 0 0.1 0 0.1-0.1 0.2-0.1 0.1 0 0.1 0 0.1 0 0.2 0 0 0 0.1-0.1 0.1 0 0.2 0 0.1 0 0.1 0 0.1 0.1 0.2 0.1 0.1 0 0.2 0 0.1 0 0.1 0 0.1 0.1 0.2 0.1 0.1 0 0.1 0.1 0.1 0 0.2 0.1 0.1 0 0.1 0.1l-0.6 0.6q0-0.1 0-0.1-0.1-0.1-0.1-0.1 0 0-0.1 0 0-0.1-0.1-0.1 0 0-0.1 0 0 0-0.1 0 0-0.1-0.1-0.1-0.1 0-0.1 0 0 0-0.1 0 0 0 0 0-0.1 0-0.1 0 0 0-0.1 0 0 0 0 0-0.1 0.1-0.1 0.1 0 0 0 0-0.1 0-0.1 0 0 0 0 0.1-0.1 0-0.1 0 0 0 0 0 0 0.1-0.1 0.1 0 0 0 0.1 0 0 0 0 0 0.1 0 0.1 0 0 0 0 0 0.1 0 0.1 0 0.1 0 0.1 0 0.1 0.1 0.1 0 0.1 0 0.1 0.1 0 0.1 0 0.1 0.1 0.1 0.1 0.1 0 0.1 0 0.1 0.1 0.1 0.1l0.5 0.1q0.1 0.1 0.1 0.1 0.1 0 0.2 0 0 0.1 0.1 0.1 0.1 0 0.1 0zm15.7 1.6h2.2v0.7h-3v-4.2h2.9v0.7h-2.1v1h2v0.6h-2zm6.2 0.7h-0.9l-1-1.8h-0.6v1.8h-0.7v-4.3h1.5q0 0 0.1 0 0.1 0 0.2 0 0.1 0.1 0.1 0.1 0.1 0 0.2 0 0 0 0.1 0 0.1 0 0.1 0.1 0.1 0 0.2 0 0 0 0.1 0.1 0.1 0 0.1 0.1 0.1 0 0.1 0 0 0.1 0.1 0.1 0 0.1 0.1 0.2 0 0 0 0.1 0.1 0.1 0.1 0.1 0 0.1 0 0.2 0 0.1 0 0.1 0 0.2 0 0.3 0 0.1-0.1 0.2 0 0.1 0 0.2-0.1 0-0.2 0.1 0 0.1-0.1 0.2-0.1 0-0.2 0.1-0.1 0-0.2 0.1-0.1 0-0.2 0zm-1.6-2.5q0 0 0.1 0 0 0 0 0 0.1 0 0.1 0 0.1 0 0.1-0.1 0 0 0.1 0 0 0 0 0 0.1 0 0.1-0.1 0 0 0 0 0.1-0.1 0.1-0.1 0 0 0-0.1 0 0 0-0.1 0 0 0-0.1 0 0 0 0 0-0.1 0-0.1 0 0 0-0.1 0 0-0.1-0.1 0 0 0 0 0 0-0.1-0.1 0 0 0 0 0 0-0.1 0 0 0 0-0.1-0.1 0-0.1 0 0 0-0.1 0 0 0 0 0h-1v1.1zm-16.3 1.7q0.1 0 0.1-0.1 0.1 0 0.2-0.1 0-0.1 0.1-0.1l0.6 0.5q-0.1 0.1-0.2 0.1 0 0.1-0.1 0.2-0.1 0.1-0.2 0.1-0.1 0.1-0.2 0.1-0.1 0.1-0.2 0.1-0.2 0-0.3 0.1-0.1 0-0.2 0-0.1 0-0.2 0-0.1 0-0.3 0-0.1 0-0.2 0-0.1 0-0.2-0.1-0.1 0-0.3-0.1-0.1 0-0.2 0-0.1-0.1-0.1-0.1-0.1-0.1-0.2-0.2-0.1 0-0.2-0.1-0.1-0.1-0.1-0.2-0.1 0-0.2-0.1 0-0.1-0.1-0.2 0-0.1-0.1-0.2 0-0.1 0-0.2-0.1-0.1-0.1-0.2 0-0.2 0-0.3 0-0.1 0-0.2 0-0.1 0-0.2 0-0.2 0-0.3 0-0.1 0.1-0.2 0-0.1 0-0.2 0.1-0.1 0.1-0.2 0.1-0.1 0.1-0.2 0.1-0.1 0.2-0.2 0-0.1 0.1-0.1 0.1-0.1 0.2-0.2 0.1 0 0.2-0.1 0-0.1 0.1-0.1 0.1-0.1 0.2-0.1 0.2 0 0.3-0.1 0.1 0 0.2 0 0.1 0 0.2-0.1 0.2 0 0.3 0 0.1 0 0.2 0.1 0.1 0 0.2 0 0.1 0 0.2 0 0.1 0.1 0.2 0.1 0.1 0 0.2 0.1 0.1 0.1 0.2 0.1 0.1 0.1 0.1 0.2 0.1 0 0.2 0.1l-0.6 0.4q-0.1 0-0.1-0.1-0.1 0-0.1 0-0.1-0.1-0.1-0.1-0.1-0.1-0.2-0.1 0 0-0.1 0 0 0-0.1 0 0-0.1-0.1-0.1-0.1 0-0.1 0-0.1 0-0.2 0-0.1 0-0.1 0.1-0.1 0-0.2 0-0.1 0-0.1 0-0.1 0.1-0.2 0.1 0 0-0.1 0.1-0.1 0-0.1 0.1-0.1 0-0.1 0.1-0.1 0.1-0.2 0.2-0.1 0.1-0.1 0.3-0.1 0.1-0.1 0.3 0 0.1 0 0.2 0 0.1 0 0.2 0 0.1 0 0.2 0 0 0 0.1 0.1 0.1 0.1 0.2 0 0 0 0.1 0.1 0.1 0.1 0.1 0.1 0.1 0.1 0.2 0 0 0.1 0.1 0 0 0.1 0.1 0 0 0.1 0.1 0.1 0 0.1 0 0.1 0.1 0.2 0.1 0 0 0.1 0.1 0.1 0 0.2 0 0 0 0.1 0 0.1 0 0.2 0 0 0 0.1 0 0.1 0 0.1 0 0.1 0 0.2 0 0-0.1 0.1-0.1 0.1 0 0.1-0.1zm9.5-3.5h0.9l-1.8 4.3h-0.7l-1.7-4.3h0.8l1.2 3.3z"/>
</svg>