<svg version="1.2" xmlns="http://www.w3.org/2000/svg" viewBox="0 0 38 38" width="38" height="38">
	<title>mastercard-outline-svg</title>
	<style>
		.s0 { fill: #eeeeee } 
	</style>
	<path id="Layer" fill-rule="evenodd" class="s0" d="m34.9 7.4q0.9 0.4 1.6 1.1 0.7 0.7 1.1 1.6 0.4 0.9 0.4 1.9v14q0 1-0.4 1.9-0.4 0.9-1.1 1.6-0.7 0.7-1.6 1.1-0.9 0.4-1.9 0.4h-28q-1 0-1.9-0.4-0.9-0.4-1.6-1.1-0.7-0.7-1.1-1.6-0.4-0.9-0.4-1.9v-14q0-1 0.4-1.9 0.4-0.9 1.1-1.6 0.7-0.7 1.6-1.1 0.9-0.4 1.9-0.4h28q1 0 1.9 0.4zm-29.9 0.6q-0.8 0-1.5 0.3-0.8 0.3-1.3 0.9-0.6 0.5-0.9 1.3-0.3 0.7-0.3 1.5v14q0 0.8 0.3 1.5 0.3 0.8 0.9 1.3 0.5 0.6 1.3 0.9 0.7 0.3 1.5 0.3h28q0.8 0 1.5-0.3 0.8-0.3 1.3-0.9 0.6-0.5 0.9-1.3 0.3-0.7 0.3-1.5v-14q0-0.8-0.3-1.5-0.3-0.8-0.9-1.3-0.5-0.6-1.3-0.9-0.7-0.3-1.5-0.3z"/>
	<path id="Layer" class="s0" d="m17 16.9q-0.4 1-0.4 2.1 0 1.1 0.4 2.1 0.4 1 1.1 1.8c-1.4 1-3.3 1.1-4.9 0.3-1.5-0.8-2.5-2.4-2.5-4.2 0-1.8 1-3.4 2.5-4.2 1.6-0.8 3.5-0.7 4.9 0.3q-0.7 0.8-1.1 1.8z"/>
	<circle id="Layer" class="s0" cx="22.6" cy="19" r="4.8"/>
</svg>