<svg version="1.2" xmlns="http://www.w3.org/2000/svg" viewBox="0 0 38 38" width="38" height="38">
	<title>paypal-outline-svg</title>
	<style>
		.s0 { fill: #eeeeee } 
	</style>
	<path id="Layer" fill-rule="evenodd" class="s0" d="m34.9 7.4q0.9 0.4 1.6 1.1 0.7 0.7 1.1 1.6 0.4 0.9 0.4 1.9v14q0 1-0.4 1.9-0.4 0.9-1.1 1.6-0.7 0.7-1.6 1.1-0.9 0.4-1.9 0.4h-28q-1 0-1.9-0.4-0.9-0.4-1.6-1.1-0.7-0.7-1.1-1.6-0.4-0.9-0.4-1.9v-14q0-1 0.4-1.9 0.4-0.9 1.1-1.6 0.7-0.7 1.6-1.1 0.9-0.4 1.9-0.4h28q1 0 1.9 0.4zm-29.9 0.6q-0.8 0-1.5 0.3-0.8 0.3-1.3 0.9-0.6 0.5-0.9 1.3-0.3 0.7-0.3 1.5v14q0 0.8 0.3 1.5 0.3 0.8 0.9 1.3 0.5 0.6 1.3 0.9 0.7 0.3 1.5 0.3h28q0.8 0 1.5-0.3 0.8-0.3 1.3-0.9 0.6-0.5 0.9-1.3 0.3-0.7 0.3-1.5v-14q0-0.8-0.3-1.5-0.3-0.8-0.9-1.3-0.5-0.6-1.3-0.9-0.7-0.3-1.5-0.3z"/>
	<path id="Layer" fill-rule="evenodd" class="s0" d="m10.6 16.3q0.1 0.2 0.1 0.3 0 0.2 0 0.4 0 0.2 0 0.3 0 0.5-0.2 0.9-0.2 0.3-0.6 0.6-0.3 0.3-0.7 0.4-0.4 0.2-0.9 0.1h-0.6q-0.1 0-0.1 0-0.1 0.1-0.1 0.1 0 0-0.1 0.1 0 0 0 0.1l-0.2 1.4q0 0-0.1 0.1 0 0 0 0-0.1 0.1-0.1 0.1-0.1 0-0.1 0h-1q0 0-0.1 0 0 0 0-0.1-0.1 0-0.1 0 0-0.1 0-0.1l0.9-5.3q0 0 0-0.1 0 0 0.1-0.1 0 0 0.1 0 0 0 0 0h2.1q0.2 0 0.4 0 0.2 0 0.4 0.1 0.2 0 0.4 0.1 0.2 0.2 0.3 0.3 0.1 0.1 0.2 0.3zm-1.4 0.9q0 0 0-0.1 0-0.1-0.1-0.2 0 0 0-0.1c-0.2-0.2-0.6-0.2-0.9-0.2h-0.2q0 0-0.1 0 0 0 0 0 0 0.1 0 0.1-0.1 0-0.1 0l-0.2 1.4h0.3c0.6 0 1.1 0 1.3-0.7q0-0.1 0-0.2zm5.9 0.2q0-0.1 0.1-0.1 0.1 0 0.1 0.1 0 0 0.1 0.1 0 0-0.1 0.1l-0.5 3.4q0 0.1 0 0.1-0.1 0-0.1 0.1 0 0-0.1 0 0 0-0.1 0h-0.9q0 0 0 0-0.1 0-0.1 0 0 0 0-0.1 0 0 0-0.1v-0.2q-0.2 0.1-0.3 0.2-0.2 0.1-0.4 0.2-0.1 0.1-0.3 0.1-0.2 0-0.4 0-0.2 0.1-0.4 0-0.1 0-0.3-0.1-0.1 0-0.3-0.1-0.1-0.1-0.3-0.3-0.1-0.1-0.2-0.3-0.1-0.2-0.1-0.4 0-0.2-0.1-0.4 0-0.2 0.1-0.4 0-0.4 0.2-0.8 0.2-0.3 0.5-0.6 0.3-0.3 0.7-0.4 0.4-0.2 0.8-0.2 0.1 0 0.3 0 0.2 0 0.3 0.1 0.2 0 0.3 0.1 0.1 0.1 0.2 0.2l0.1 0.1v-0.3q0 0 0 0 0 0 0.1-0.1 0 0 0 0 0.1 0 0.1 0h1zm-1.4 1.7q0-0.1 0-0.2 0-0.1-0.1-0.1 0-0.1-0.1-0.2 0-0.1-0.1-0.1-0.1-0.1-0.2-0.1 0-0.1-0.1-0.1-0.1 0-0.2 0-0.2 0-0.4 0.1-0.2 0.1-0.4 0.2-0.1 0.1-0.2 0.3-0.1 0.2-0.1 0.4 0 0.1 0 0.2 0 0.1 0 0.2 0 0.1 0 0.2 0.1 0 0.1 0.1 0.1 0.1 0.2 0.1 0 0.1 0.1 0.1 0.1 0.1 0.2 0.1 0.1 0 0.2 0 0.2 0 0.4-0.1 0.2-0.1 0.3-0.2 0.2-0.1 0.3-0.3 0.1-0.2 0.1-0.4 0-0.1 0-0.2zm6.7-1.7q0.1 0 0.1 0.1 0 0 0 0.1 0 0 0 0l-3.3 4.8q0 0.1-0.1 0.1 0 0 0 0 0 0-0.1 0.1 0 0 0 0h-1q-0.1 0-0.1-0.1-0.1 0-0.1 0 0-0.1 0-0.1 0-0.1 0-0.1l1-1.5-1.1-3.2q0-0.1 0-0.1 0 0 0-0.1 0.1 0 0.1 0 0 0 0.1 0h1q0 0 0.1 0 0 0 0.1 0 0 0 0 0.1 0 0 0.1 0.1l0.5 1.9 1.4-2q0 0 0.1 0 0-0.1 0-0.1 0 0 0.1 0 0 0 0 0h1q0.1 0 0.1 0zm4.9-1.1q0.1 0.2 0.1 0.3 0 0.2 0 0.4 0 0.1 0 0.3 0 0.4-0.2 0.8-0.2 0.4-0.5 0.7-0.4 0.3-0.8 0.4-0.4 0.2-0.8 0.1h-0.7q-0.1 0-0.1 0 0 0-0.1 0.1 0 0 0 0.1-0.1 0-0.1 0l-0.2 1.6q0 0 0 0-0.1 0.1-0.1 0.1 0 0 0 0-0.1 0-0.1 0h-1.1q0 0 0 0-0.1 0-0.1 0 0-0.1 0-0.1 0 0 0-0.1l0.8-5.3q0 0 0-0.1 0 0 0.1 0 0-0.1 0.1-0.1 0 0 0.1 0h2q0.2 0 0.4 0 0.3 0 0.4 0.1 0.2 0.1 0.4 0.2 0.2 0.1 0.3 0.2 0.1 0.2 0.2 0.3zm-1.4 1.1q0-0.1 0-0.1 0-0.1 0-0.2 0 0-0.1-0.1 0-0.1 0-0.1c-0.2-0.2-0.6-0.2-0.9-0.2h-0.2q0-0.1 0 0-0.1 0-0.1 0 0 0 0 0 0 0.1 0 0.1l-0.3 1.4h0.3c0.6 0 1.2 0 1.3-0.7zm5.9-0.1q0 0 0.1 0 0 0 0.1 0.1 0 0 0 0 0 0.1 0 0.1l-0.5 3.5q0 0 0 0.1 0 0-0.1 0.1 0 0-0.1 0 0 0-0.1 0h-0.8q-0.1 0-0.1 0-0.1 0-0.1 0 0-0.1 0-0.1 0 0 0-0.1v-0.2q-0.2 0.1-0.3 0.2-0.2 0.1-0.3 0.2-0.2 0.1-0.4 0.1-0.2 0-0.4 0-0.2 0-0.3 0-0.2 0-0.4-0.1-0.1 0-0.3-0.1-0.1-0.1-0.2-0.3-0.2-0.1-0.3-0.3 0-0.2-0.1-0.4 0-0.2 0-0.4 0-0.2 0-0.4 0-0.4 0.2-0.8 0.2-0.3 0.5-0.6 0.3-0.3 0.7-0.4 0.4-0.2 0.8-0.2 0.2 0 0.3 0 0.2 0 0.3 0.1 0.2 0 0.3 0.1 0.2 0.1 0.3 0.2v0.1-0.3q0 0 0.1 0 0-0.1 0-0.1 0 0 0 0 0.1 0 0.1 0h1zm-1.4 1.9q0.1-0.2 0-0.4 0-0.2-0.1-0.3-0.2-0.2-0.3-0.2-0.2-0.1-0.4-0.1-0.2 0-0.4 0.1-0.2 0.1-0.3 0.2-0.2 0.1-0.3 0.3-0.1 0.2-0.1 0.4 0 0.1 0 0.2 0 0.1 0 0.2 0 0.1 0.1 0.1 0 0.1 0 0.2 0.1 0.1 0.2 0.1 0.1 0.1 0.2 0.1 0 0 0.1 0.1 0.1 0 0.2 0 0.2 0 0.4-0.1 0.2-0.1 0.4-0.2 0.1-0.1 0.2-0.3 0.1-0.2 0.1-0.4zm3.8-3.8q0 0 0 0 0 0.1 0.1 0.1 0 0 0 0.1l-0.9 5.3q0 0.1 0 0.1 0 0-0.1 0.1 0 0-0.1 0 0 0-0.1 0h-0.8q0 0-0.1 0 0 0 0 0-0.1 0-0.1-0.1 0 0 0-0.1l0.8-5.4q0 0 0.1 0 0-0.1 0-0.1 0 0 0 0 0.1 0 0.1 0h1q0 0 0.1 0z"/>
</svg>