<svg version="1.2" xmlns="http://www.w3.org/2000/svg" viewBox="0 0 38 38" width="38" height="38">
	<title>visa-outline-svg</title>
	<style>
		.s0 { fill: #eeeeee } 
	</style>
	<path id="Layer" fill-rule="evenodd" class="s0" d="m34.9 7.4q0.9 0.4 1.6 1.1 0.7 0.7 1.1 1.6 0.4 0.9 0.4 1.9v14q0 1-0.4 1.9-0.4 0.9-1.1 1.6-0.7 0.7-1.6 1.1-0.9 0.4-1.9 0.4h-28q-1 0-1.9-0.4-0.9-0.4-1.6-1.1-0.7-0.7-1.1-1.6-0.4-0.9-0.4-1.9v-14q0-1 0.4-1.9 0.4-0.9 1.1-1.6 0.7-0.7 1.6-1.1 0.9-0.4 1.9-0.4h28q1 0 1.9 0.4zm-29.9 0.6q-0.8 0-1.5 0.3-0.8 0.3-1.3 0.9-0.6 0.5-0.9 1.3-0.3 0.7-0.3 1.5v14q0 0.8 0.3 1.5 0.3 0.8 0.9 1.3 0.5 0.6 1.3 0.9 0.7 0.3 1.5 0.3h28q0.8 0 1.5-0.3 0.8-0.3 1.3-0.9 0.6-0.5 0.9-1.3 0.3-0.7 0.3-1.5v-14q0-0.8-0.3-1.5-0.3-0.8-0.9-1.3-0.5-0.6-1.3-0.9-0.7-0.3-1.5-0.3z"/>
	<path id="Layer" fill-rule="evenodd" class="s0" d="m15.8 15.6l-2.9 6.8h-1.9l-1.4-5.4q0-0.1 0-0.2-0.1-0.1-0.1-0.2-0.1 0-0.1-0.1-0.1-0.1-0.2-0.1-0.2-0.1-0.4-0.2-0.2-0.1-0.5-0.2-0.2 0-0.4-0.1-0.2-0.1-0.5-0.1v-0.2h3q0.2 0 0.3 0.1 0.2 0 0.3 0.1 0.1 0.1 0.2 0.2 0 0.2 0.1 0.3l0.7 4 1.8-4.7zm7.4 4.7c0 1.4-1.3 2.3-3.1 2.3q-0.3 0-0.5 0-0.3 0-0.5-0.1-0.3 0-0.5-0.1-0.3 0-0.5-0.1l0.3-1.5q0.2 0.1 0.5 0.1 0.2 0.1 0.4 0.2 0.3 0 0.5 0.1 0.2 0 0.5 0c0.5 0 1-0.2 1-0.7 0-0.3-0.2-0.5-0.9-0.8-0.7-0.4-1.6-0.9-1.6-1.9 0-1.4 1.3-2.3 3-2.3q0.3 0 0.5 0 0.2 0 0.4 0.1 0.2 0 0.4 0.1 0.2 0 0.4 0.1l-0.3 1.5q-0.2-0.1-0.4-0.2-0.2-0.1-0.5-0.1-0.2 0-0.4-0.1-0.2 0-0.5 0.1c-0.5 0-0.7 0.3-0.7 0.5 0 0.9 2.5 1 2.5 2.8zm4.4 1.2h-2.3l-0.3 1h-1.9l2.6-6.4q0.1-0.1 0.2-0.2 0.1-0.1 0.2-0.1 0.1-0.1 0.2-0.1 0.1-0.1 0.2-0.1h1.5l1.4 6.9h-1.6zm-0.3-1.4l-0.5-2.6-1 2.6zm-8.9-4.5l-1.5 6.9h-1.7l1.4-6.9z"/>
</svg>